<svg xmlns="http://www.w3.org/2000/svg" xmlns:xlink="http://www.w3.org/1999/xlink" id="Layer_1" data-name="Layer 1" viewBox="0 0 880 460"><defs><linearGradient id="linear-gradient" x1="25.31" y1="230" x2="854.69" y2="230" gradientUnits="userSpaceOnUse"><stop offset="0" stop-color="#003cff"></stop><stop offset="1" stop-color="#009cff"></stop></linearGradient><linearGradient id="linear-gradient-2" x1="247.74" y1="139.74" x2="257.36" y2="139.74" xlink:href="#linear-gradient"></linearGradient><linearGradient id="linear-gradient-3" x1="-6.02" y1="332.87" x2="355.88" y2="144.26" xlink:href="#linear-gradient"></linearGradient><linearGradient id="linear-gradient-4" x1="820.55" y1="77.84" x2="724.42" y2="309.65" gradientUnits="userSpaceOnUse"><stop offset="0" stop-color="#003cff"></stop><stop offset="1" stop-color="#009cff" stop-opacity="0"></stop></linearGradient><linearGradient id="linear-gradient-5" x1="546.4" y1="384.98" x2="480.83" y2="281.7" xlink:href="#linear-gradient-4"></linearGradient><linearGradient id="linear-gradient-6" x1="341.52" y1="101.28" x2="437.97" y2="214.63" xlink:href="#linear-gradient-4"></linearGradient><linearGradient id="linear-gradient-7" x1="83.46" y1="341.01" x2="232.48" y2="341.01" gradientUnits="userSpaceOnUse"><stop offset="0" stop-color="blue"></stop><stop offset="1" stop-color="#009cff" stop-opacity="0"></stop></linearGradient></defs><title>Logomark</title><path d="M854.67,149A107,107,0,0,0,672,75.57L579.57,168a35.68,35.68,0,0,1-50.44,0l-8.33-8.33-44.18-44.18-13.95-14-.8-.8a195,195,0,0,0-19.81-17.31q-4.24-3.24-8.65-6.22h0a193,193,0,0,0-244.77,23.54l-132,132.07a107,107,0,0,0,75.68,182.65c1.34,0,2.67,0,4-.07A106.78,106.78,0,0,0,208,384.13l61.48-61.51L300,292a35.68,35.68,0,0,1,50.45,0l23.37,23.37,16.37,16.38,27.51,27.5A192.84,192.84,0,0,0,439,377.7q7.07,5.28,14.58,9.86h0A193.24,193.24,0,0,0,691,359.29L823.35,226.9a108.56,108.56,0,0,0,10.94-12.79,107.08,107.08,0,0,0,20.17-55.84c.16-2.33.23-4.68.23-7C854.69,150.49,854.68,149.75,854.67,149Zm-74.45,16.84a35.47,35.47,0,0,1-7.31,10.59l-97.63,97.64-34.76,34.76a124,124,0,0,1-12.93,11.24,122.08,122.08,0,0,1-159.41-11.24l-21.12-21.12-7.35-7.35-78.26-78.26a51.4,51.4,0,0,0-36.11-15.27,50.21,50.21,0,0,0-35.81,14.8l-64.93,65L158.21,333l-.67.67A35.67,35.67,0,0,1,104,286.85a35.13,35.13,0,0,1,3.14-3.58l126-126.08,0,0,6-6q4.17-4.16,8.66-7.87a120.92,120.92,0,0,1,77.51-27.82h2l1,0h.08l.91,0h.44l1.1,0,1,0q.54,0,1.08.06l1.22.08.6,0,.89.07.64.06,1.17.1,1.33.14.33,0,1.33.16a1,1,0,0,1,.24,0l1.24.16h0c.48.07,1,.13,1.45.21l1.48.23h.1l1.25.21,1.15.2.72.14c.48.08,1,.18,1.43.27l1,.21.67.14c1.18.26,2.35.53,3.52.82l.63.15,2.3.61.59.16.91.26c.93.26,1.84.54,2.76.83l.78.25.24.07.89.3c.46.14.91.3,1.37.46l1.12.39.25.09.79.29c.38.13.75.27,1.13.42l.54.2.65.26c.74.28,1.48.58,2.21.88l.89.37.14.06.95.41,2,.88c.32.14.65.29,1,.45l.93.43,2,1,.86.44.27.13.78.41c.64.33,1.28.67,1.91,1,.31.16.61.33.91.5l.1.05.87.49c.62.36,1.25.72,1.86,1.09.31.17.62.36.93.55l.16.09,1.51.94,1.08.69a121.86,121.86,0,0,1,20.53,16.55l53.26,53.25,53.94,54a50.58,50.58,0,0,0,71.45,0L716.89,131.59l5.58-5.58c.46-.46.94-.91,1.42-1.34l0,0a35.67,35.67,0,0,1,56.31,41.22Z" fill="url(#linear-gradient)"></path><path d="M247.74,143.34a75,75,0,0,1,9.62-7.2Q252.4,139.49,247.74,143.34Z" fill="url(#linear-gradient-2)"></path><path d="M433.41,77.23C348.49,69.12,284.15,103,233.13,157.17l0,0-126,126.08a35.13,35.13,0,0,0-3.14,3.58,35.67,35.67,0,0,0-5,34.23L80.32,337.94S99.6,375.28,110,413.16A107,107,0,0,1,56.63,232.84l132-132.07A193,193,0,0,1,433.41,77.23Z" fill="url(#linear-gradient-3)"></path><path d="M854.46,158.27A106,106,0,0,1,847.83,189h0c-.31.84-.64,1.67-1,2.5-.19.48-.38.94-.58,1.41l-.19.45-.36.83c-.14.34-.29.67-.45,1v0c-.18.41-.36.81-.55,1.21-.41.89-.83,1.77-1.27,2.64-.19.39-.39.77-.58,1.15l-.26.49-.4.78-.38.7c-.21.4-.43.8-.66,1.19s-.3.56-.46.83c-.39.68-.78,1.36-1.19,2-.21.36-.43.72-.65,1.08l-.15.25c-.25.4-.49.79-.75,1.18,0,0,0,.06-.05.09-.23.37-.47.73-.71,1.09l-.3.46q-.79,1.2-1.62,2.37l-.16.22c-.27.39-.54.77-.82,1.15v0a108.56,108.56,0,0,1-10.94,12.79L711.17,339.08l-35.89-65,97.63-97.64a35.64,35.64,0,0,0,9.56-17.31c0-.15.07-.31.1-.46q.1-.45.18-.9l.09-.49c0-.15,0-.31.07-.46.06-.31.1-.62.14-.93l.06-.46c0-.16,0-.31,0-.47s0-.31,0-.47c.06-.62.1-1.24.13-1.87,0-.31,0-.62,0-.93a35.52,35.52,0,0,0-5.11-18.88c-.18-.31-.37-.62-.57-.92l-.39-.59c-.26-.39-.54-.78-.82-1.17s-.72-.95-1.1-1.42l-.58-.69c-.4-.46-.81-.91-1.23-1.36l-.64-.66a35.64,35.64,0,0,0-24.37-10.44h-.85a35.74,35.74,0,0,0-18.3,5c38.67-27.93,80-21,109.16,10.53A75.49,75.49,0,0,1,854.46,158.27Z" fill="url(#linear-gradient-4)"></path><path d="M627.59,320.09C577.94,366.24,497.76,385.29,439,377.7c-.88-.65-1.76-1.31-2.62-2l-1.3-1-1.29-1-.94-.75-1.78-1.46-1.09-.92-1.21-1-.05,0q-5.67-4.86-11-10.19l-11.47-11.46-16-16c14.31-15.51,34.49-33.78,56.83-44.06l21.12,21.12a121.27,121.27,0,0,0,35.6,24.71h0c1,.45,2,.89,3,1.31h0c1.51.65,3,1.25,4.57,1.82l1.52.56.06,0c.5.19,1,.36,1.5.53s.95.33,1.42.48l.29.1c.4.13.82.27,1.23.39l.32.11c1,.31,2,.6,3,.89s2.1.58,3.15.85l1.58.4,1.58.37,1.43.31.51.11c.34.08.67.15,1,.21l.65.13.73.15.91.16c.22,0,.43.09.65.12l.8.14.67.11,1,.16,1.36.21,1.5.2,1.56.2h.11l1.55.18,1.37.14.7.06,1,.08.5,0,1,.07.58,0c.35,0,.69,0,1,.06l.48,0,1.19.05.4,0,1.21,0h.31l1.56,0h1.62a122.39,122.39,0,0,0,26.06-2.8A121.15,121.15,0,0,0,627.59,320.09Z" fill="url(#linear-gradient-5)"></path><path d="M520.8,159.7c-20.23,16.11-43.93,35-56.12,44.76l-53.26-53.25a122.28,122.28,0,0,0-113.08-32.73,120.63,120.63,0,0,0-50.6,24.86C314.15,85.15,385.09,77.59,442,83.45h0a195,195,0,0,1,19.81,17.31l16.58,16.59Z" fill="url(#linear-gradient-6)"></path><path d="M269.47,322.62,208,384.13a106.82,106.82,0,0,1-15.4,12.78l0,0c-.77.52-1.54,1-2.33,1.54-.39.26-.79.51-1.19.76s-.91.57-1.37.84-.7.42-1.06.63l-1.15.67-.17.1-1.14.64-1.25.68-1.26.66-1.24.63,0,0-1.15.57-.17.08-1.23.58-1.29.6-1.31.58-1.31.57-1.33.55q-2.45,1-4.92,1.85h0a106.48,106.48,0,0,1-31.32,5.92C80.17,394.08,67.7,327.37,104,286.85a35.67,35.67,0,0,0,53.59,46.85l.67-.67,66.39-66.42Z" fill="url(#linear-gradient-7)"></path><path d="M442.06,83.45h0c-56.94-5.86-127.88,1.7-194.29,59.89q-4.49,3.71-8.66,7.87l-6,6c51-54.18,115.36-88,200.28-79.94h0Q437.82,80.22,442.06,83.45Z" fill="#fff" opacity="0.2"></path><path d="M627.59,320.09c-45.32,51.21-112.69,68.5-174,67.47h0Q446.08,383,439,377.7C497.76,385.29,577.94,366.24,627.59,320.09Z" fill="#fff" opacity="0.2"></path><path d="M854.69,151.23c0,2.36-.07,4.71-.23,7a75.49,75.49,0,0,0-15.91-27.14c-29.16-31.56-70.49-38.46-109.16-10.53a35.8,35.8,0,0,0-5.48,4c42.55-41.21,106.31-29.28,130.55,23.83.08.17.14.36.21.55C854.68,149.75,854.69,150.49,854.69,151.23Z" fill="#fff" opacity="0.2"></path><path d="M136.31,415.42c-1.33.05-2.66.07-4,.07a107,107,0,0,1-11.2-.58C74.57,392.63,62.5,327.84,104,286.85,67.7,327.37,80.17,394.08,136.31,415.42Z" fill="#fff" opacity="0.2"></path><path d="M854.46,158.27A106,106,0,0,1,847.83,189c.77-41.21-39.4-94.59-99.29-73.38h-.85a35.74,35.74,0,0,0-18.3,5c38.67-27.93,80-21,109.16,10.53A75.49,75.49,0,0,1,854.46,158.27Z" fill="#0d206d" opacity="0.2"></path><path d="M478.45,117.35C436.6,96.13,352,92.45,298.34,118.48a120.63,120.63,0,0,0-50.6,24.86C314.15,85.15,385.09,77.59,442,83.45h0a195,195,0,0,1,19.81,17.31Z" fill="#0d206d" opacity="0.2"></path><path d="M627.59,320.09C577.94,366.24,497.76,385.29,439,377.7c-.88-.65-1.76-1.31-2.62-2l-1.3-1-1.29-1-.94-.75-1.78-1.46-1.09-.92-1.21-1-.05,0q-5.67-4.86-11-10.19l-11.47-11.46c57.74,10.22,129.45,11.24,174.14-6.15A121.15,121.15,0,0,0,627.59,320.09Z" fill="#0d206d" opacity="0.2"></path><path d="M167.63,409.5a106.48,106.48,0,0,1-31.32,5.92C80.17,394.08,67.7,327.37,104,286.85a35.61,35.61,0,0,0-7.29,20.52l0,.07C85.84,348.48,119.18,403,167.63,409.5Z" fill="#0d206d" opacity="0.2"></path></svg>